<?xml version="1.0" encoding="utf-8"?>
<!-- Generator: Adobe Illustrator 16.0.4, SVG Export Plug-In . SVG Version: 6.00 Build 0)  -->
<!DOCTYPE svg PUBLIC "-//W3C//DTD SVG 1.1//EN" "http://www.w3.org/Graphics/SVG/1.1/DTD/svg11.dtd">
<svg version="1.1" id="Layer_1" xmlns="http://www.w3.org/2000/svg" xmlns:xlink="http://www.w3.org/1999/xlink" x="0px" y="0px"
	 width="100px" height="100px" viewBox="0 0 100 100" enable-background="new 0 0 100 100" xml:space="preserve">
<circle fill="none" stroke="#FFFFFF" stroke-width="3" stroke-miterlimit="10" cx="50.091" cy="49.751" r="46.917"/>
<circle fill="none" stroke="#FFFFFF" stroke-width="2" stroke-miterlimit="10" cx="50.614" cy="49.654" r="20.804"/>
<circle fill="none" stroke="#FFFFFF" stroke-width="3" stroke-miterlimit="10" cx="50.305" cy="50.177" r="13.222"/>
<circle fill="#FFFFFF" cx="50.305" cy="50.177" r="2.772"/>
<g>
	<path fill="none" d="M24.836,50.393c0,0.037,0.006,0.074,0.007,0.11l41.347-21.077c-4.395-3.294-9.848-5.246-15.749-5.184
		C36.17,24.393,24.685,36.124,24.836,50.393z"/>
	<path fill="none" d="M18.594,50.03c0.186,17.531,14.6,31.643,32.129,31.458c8.263-0.088,15.759-3.335,21.364-8.577l-4.061-1.897
		c-4.631,3.846-10.554,6.191-17.025,6.261c-14.976,0.157-27.287-11.896-27.445-26.868c-0.158-14.975,11.896-27.286,26.87-27.443
		c6.422-0.068,12.345,2.121,17.038,5.813l4.575-2.333c-5.763-5.37-13.507-8.632-21.987-8.542
		C32.521,18.085,18.409,32.499,18.594,50.03z"/>
	<path fill="none" d="M49.677,12.592c-20.342,0.216-36.716,16.94-36.501,37.281c0.215,20.341,16.939,36.716,37.282,36.5
		c10.289-0.108,19.559-4.445,26.184-11.336l-3.315-1.547c-5.866,5.657-13.812,9.185-22.588,9.276
		C32.5,82.96,17.507,68.281,17.314,50.044c-0.192-18.237,14.487-33.23,32.724-33.423c8.988-0.095,17.186,3.428,23.214,9.204
		l3.496-1.783C69.937,16.901,60.301,12.48,49.677,12.592z"/>
	<path fill="none" d="M50.987,75.995c5.947-0.062,11.393-2.159,15.731-5.591L24.865,50.858
		C25.266,64.907,36.875,76.144,50.987,75.995z"/>
	<path fill="none" d="M49.842,7.899C26.795,8.143,8.243,27.091,8.487,50.138s19.192,41.598,42.239,41.354
		c12.293-0.13,23.304-5.583,30.869-14.141l-3.735-1.743c-6.874,7.31-16.586,11.931-27.39,12.045
		c-21.047,0.223-38.351-16.719-38.573-37.766c-0.223-21.048,16.72-38.351,37.767-38.573c11.131-0.118,21.215,4.568,28.277,12.121
		l3.361-1.712C73.547,13.132,62.295,7.768,49.842,7.899z"/>
	<path fill="#FFFFFF" d="M50.726,91.491C27.679,91.735,8.73,73.185,8.487,50.138S26.795,8.143,49.842,7.899
		c12.453-0.131,23.705,5.233,31.46,13.822l1.177-0.6c-8-9.002-19.691-14.639-32.651-14.502C26.076,6.871,6.957,26.399,7.207,50.152
		c0.251,23.75,19.779,42.868,43.532,42.618c12.803-0.135,24.256-5.878,32.057-14.859l-1.201-0.561
		C74.029,85.908,63.019,91.361,50.726,91.491z"/>
	<path fill="#FFFFFF" d="M49.663,11.313c-21.047,0.222-37.99,17.525-37.767,38.573c0.222,21.047,17.526,37.988,38.573,37.766
		c10.804-0.114,20.516-4.735,27.39-12.045l-1.219-0.57c-6.625,6.891-15.895,11.228-26.184,11.336
		c-20.342,0.216-37.066-16.159-37.282-36.5c-0.215-20.341,16.16-37.065,36.501-37.281c10.624-0.112,20.26,4.309,27.071,11.451
		l1.192-0.608C70.878,15.881,60.794,11.195,49.663,11.313z"/>
	<path fill="#FFFFFF" d="M17.314,50.044C17.507,68.281,32.5,82.96,50.737,82.767c8.775-0.092,16.722-3.619,22.588-9.276
		l-1.238-0.579c-5.605,5.242-13.102,8.489-21.364,8.577C33.193,81.673,18.78,67.562,18.594,50.03
		C18.409,32.499,32.521,18.085,50.052,17.9c8.48-0.09,16.225,3.172,21.987,8.542l1.213-0.618
		c-6.028-5.776-14.226-9.299-23.214-9.204C31.801,16.813,17.122,31.807,17.314,50.044z"/>
	<path fill="#FFFFFF" d="M23.556,50.406c0.158,14.972,12.469,27.025,27.445,26.868c6.472-0.069,12.395-2.415,17.025-6.261
		l-1.308-0.609c-4.339,3.432-9.784,5.528-15.731,5.591c-14.113,0.148-25.721-11.088-26.123-25.137l-0.375-0.175l0.353-0.181
		c0-0.036-0.006-0.073-0.007-0.11c-0.151-14.269,11.334-26,25.604-26.15c5.901-0.062,11.354,1.889,15.749,5.184l1.274-0.65
		c-4.693-3.692-10.616-5.881-17.038-5.813C35.452,23.121,23.398,35.432,23.556,50.406z"/>
</g>
</svg>
