<?xml version="1.0" encoding="utf-8"?>
<!-- Generator: Adobe Illustrator 16.0.0, SVG Export Plug-In . SVG Version: 6.00 Build 0)  -->
<!DOCTYPE svg PUBLIC "-//W3C//DTD SVG 1.1//EN" "http://www.w3.org/Graphics/SVG/1.1/DTD/svg11.dtd">
<svg version="1.1" id="Слой_1" xmlns="http://www.w3.org/2000/svg" xmlns:xlink="http://www.w3.org/1999/xlink" x="0px" y="0px"
	 width="500px" height="500px" viewBox="0 0 500 500" enable-background="new 0 0 500 500" xml:space="preserve">
<path opacity="0.4" fill="#000301" enable-background="new    " d="M193.942,229.486c-7.917,5.398-17.567,8.593-28.007,8.593
	c-26.825,0-48.57-20.953-48.57-46.799c0-25.844,21.746-46.801,48.57-46.801c10.439,0,20.09,3.194,28.007,8.592V65.338
	c-9.034-1.856-18.397-2.849-28.007-2.849c-73.819,0-133.66,57.669-133.66,128.791c0,71.111,59.84,128.789,133.66,128.789
	c9.609,0,18.973-1.006,28.007-2.868V229.486z"/>
<polygon opacity="0.4" fill="#5E70B2" enable-background="new    " points="401.291,57.063 262.195,57.063 193.631,57.063 
	193.631,326.409 193.631,326.427 467.131,326.427 467.131,326.409 467.131,57.063 "/>
<polygon fill="#FFFFFF" points="199.66,63.944 284.376,63.944 330.018,121.484 376.99,63.953 461.465,63.953 461.465,320.143 
	376.75,320.143 376.75,182.221 330.562,239.347 284.376,182.221 284.376,320.143 199.66,320.143 "/>
<rect x="32.276" y="355.922" fill="none" width="459.306" height="89.361"/>
<g opacity="0.4" enable-background="new    ">
	<path fill="#5E70B2" d="M93.821,385.925c-4.42,11.562-15.386,18.787-28.307,18.787c-17.767,0-30.857-12.496-30.857-31.112
		c0-18.106,13.091-30.772,30.857-30.772c13.686,0,23.717,7.565,27.712,17.171l-14.111,3.825c-3.061-4.761-7.906-7.565-14.281-7.565
		c-9.691,0-15.812,7.141-15.812,17.512c0,10.54,6.546,17.426,15.727,17.426c7.82,0,12.666-4.08,15.046-9.011L93.821,385.925z"/>
	<path fill="#5E70B2" d="M133.683,342.827c18.191,0,31.368,12.751,31.368,30.942s-13.176,30.942-31.368,30.942
		s-31.367-12.751-31.367-30.942S115.491,342.827,133.683,342.827z M133.683,391.195c9.861,0,17.001-6.801,17.001-17.426
		c0-10.711-7.141-17.512-17.001-17.512s-17.001,6.801-17.001,17.512C116.681,384.395,123.822,391.195,133.683,391.195z"/>
	<path fill="#5E70B2" d="M191.056,403.521l-21.251-59.505h16.236l9.181,28.223c3.655,11.136,5.101,15.726,5.186,15.981h0.255
		c0.085-0.256,1.53-4.846,5.101-15.727l9.266-28.478H230.5l-21.251,59.505H191.056z"/>
	<path fill="#5E70B2" d="M240.184,344.017h43.353v13.261h-29.072v10.201h21.422v11.901h-21.422v10.881h29.498v13.261h-43.779
		V344.017z"/>
	<path fill="#5E70B2" d="M316.939,383.885h-2.975h-3.4v19.637h-14.281v-59.505h22.611c14.961,0,23.717,7.821,23.717,20.146
		c0,8.161-3.994,14.196-11.221,16.917l13.602,22.441h-16.916L316.939,383.885z M319.83,372.494c5.271,0,8.16-2.636,8.16-7.65
		c0-4.931-2.719-7.906-8.244-7.906h-9.182v15.557H319.83z"/>
</g>
<g opacity="0.4" enable-background="new    ">
	<path fill="#000301" d="M404.577,388.985c0-14.111,0.17-21.082,0.17-21.167h-0.17c-0.085,0.085-2.976,5.44-5.866,10.541
		l-5.779,10.456h-7.991l-5.78-10.286c-2.976-5.271-5.781-10.626-5.865-10.711h-0.256c0,0.085,0.17,7.056,0.17,21.167v14.536h-14.281
		v-59.505h15.132l14.961,26.607h0.255l15.047-26.607h14.535v59.505h-14.28V388.985z"/>
	<path fill="#000301" d="M432.367,344.017h43.354v13.261h-29.072v10.201h21.422v11.901h-21.422v10.881h29.498v13.261h-43.779
		V344.017z"/>
</g>
</svg>