<?xml version="1.0" encoding="utf-8"?>
<!-- Generator: Adobe Illustrator 16.0.0, SVG Export Plug-In . SVG Version: 6.00 Build 0)  -->
<!DOCTYPE svg PUBLIC "-//W3C//DTD SVG 1.1//EN" "http://www.w3.org/Graphics/SVG/1.1/DTD/svg11.dtd">
<svg version="1.1" id="Layer_1" xmlns="http://www.w3.org/2000/svg" xmlns:xlink="http://www.w3.org/1999/xlink" x="0px" y="0px"
	 width="600px" height="600px" viewBox="0 0 600 600" enable-background="new 0 0 600 600" xml:space="preserve">
<polygon fill="#3F3F3F" points="588.549,155.406 299.935,245.033 299.935,118.936 588.549,53.363 "/>
<polygon fill="#3F3F3F" points="299.935,245.033 11.075,155.33 11.269,53.351 299.935,118.936 "/>
<polygon fill="#3F3F3F" points="11.259,308.439 299.935,434.169 299.935,307.168 11.795,205.86 "/>
<polygon fill="#3F3F3F" points="588.925,308.304 299.935,434.169 299.935,307.168 588.623,205.663 "/>
<polygon fill="#3F3F3F" points="588.549,359.489 299.935,497.216 299.935,590.825 588.549,435.065 "/>
<polygon fill="#3F3F3F" points="299.935,590.825 299.935,497.216 11.111,359.388 11.087,435.065 "/>
<line fill="#3F3F3F" x1="11.269" y1="53.351" x2="11.087" y2="435.065"/>
<line fill="#3F3F3F" x1="11.269" y1="53.351" x2="299.935" y2="118.936"/>
<line fill="#3F3F3F" x1="588.549" y1="53.363" x2="299.935" y2="118.936"/>
<line fill="#3F3F3F" x1="11.269" y1="53.351" x2="300.063" y2="9.175"/>
<line fill="#3F3F3F" x1="300.063" y1="9.175" x2="588.549" y2="53.363"/>
<line fill="#3F3F3F" x1="588.549" y1="53.363" x2="588.549" y2="435.065"/>
<line fill="#3F3F3F" x1="588.549" y1="435.065" x2="299.935" y2="590.825"/>
<line fill="#3F3F3F" x1="299.935" y1="590.825" x2="11.087" y2="435.065"/>
<line fill="#3F3F3F" x1="299.935" y1="590.825" x2="299.935" y2="118.936"/>
</svg>
