<?xml version="1.0" encoding="utf-8"?>
<!-- Generator: Adobe Illustrator 16.0.0, SVG Export Plug-In . SVG Version: 6.00 Build 0)  -->
<!DOCTYPE svg PUBLIC "-//W3C//DTD SVG 1.1//EN" "http://www.w3.org/Graphics/SVG/1.1/DTD/svg11.dtd">
<svg version="1.1" id="Layer_1" xmlns="http://www.w3.org/2000/svg" xmlns:xlink="http://www.w3.org/1999/xlink" x="0px" y="0px"
	 width="600px" height="600px" viewBox="0 0 600 600" enable-background="new 0 0 600 600" xml:space="preserve">
<path fill="#3F3F3F" d="M300,119.985"/>
<polygon fill="#3F3F3F" points="383.636,544.445 300,589.588 300,119.985 383.636,100.975 "/>
<polygon fill="#3F3F3F" points="493.002,485.424 423.41,522.982 423.41,91.79 493.002,75.979 "/>
<polygon fill="#3F3F3F" points="586.719,434.845 525.806,467.719 525.806,68.525 586.719,54.687 "/>
<polygon fill="#3F3F3F" points="13.213,54.828 299.915,120.003 383.636,100.975 94.709,42.221 "/>
<polygon fill="#3F3F3F" points="203.929,25.247 493.002,75.979 423.41,91.79 134.088,36.028 "/>
<polygon fill="#3F3F3F" points="300,10.411 586.719,54.687 525.806,68.525 237.273,20.094 "/>
<path fill="#3F3F3F" d="M203.916,25.244"/>
<path fill="#3F3F3F" d="M132.746,36.235"/>
<g>
	
		<line fill="none" stroke="#3F3F3F" stroke-width="0" stroke-linecap="round" stroke-linejoin="round" x1="13.336" y1="54.442" x2="13.155" y2="433.664"/>
	
		<line fill="none" stroke="#3F3F3F" stroke-width="0" stroke-linecap="round" stroke-linejoin="round" x1="13.336" y1="54.442" x2="300.116" y2="119.601"/>
	
		<line fill="none" stroke="#3F3F3F" stroke-width="0" stroke-linecap="round" stroke-linejoin="round" x1="586.845" y1="54.454" x2="300.116" y2="119.601"/>
	
		<line fill="none" stroke="#3F3F3F" stroke-width="0" stroke-linecap="round" stroke-linejoin="round" x1="300.245" y1="10.555" x2="13.336" y2="54.442"/>
	
		<line fill="none" stroke="#3F3F3F" stroke-width="0" stroke-linecap="round" stroke-linejoin="round" x1="300.245" y1="10.555" x2="586.845" y2="54.454"/>
	
		<line fill="none" stroke="#3F3F3F" stroke-width="0" stroke-linecap="round" stroke-linejoin="round" x1="586.845" y1="54.454" x2="586.845" y2="433.664"/>
	
		<line fill="none" stroke="#3F3F3F" stroke-width="0" stroke-linecap="round" stroke-linejoin="round" x1="300.116" y1="588.408" x2="586.845" y2="433.664"/>
	
		<line fill="none" stroke="#3F3F3F" stroke-width="0" stroke-linecap="round" stroke-linejoin="round" x1="13.155" y1="433.664" x2="300.116" y2="588.408"/>
	
		<line fill="none" stroke="#3F3F3F" stroke-width="0" stroke-linecap="round" stroke-linejoin="round" x1="300.116" y1="119.601" x2="300.116" y2="588.408"/>
</g>
</svg>
